<svg aria-hidden="true" style="width:0;height:0;position:absolute;overflow:hidden" xmlns="http://www.w3.org/2000/svg"><defs><symbol id="vector" viewBox="0 0 28 32"><path fill="#fff" style="fill:var(--color1,#fff)" d="m15.746 1.059 1.434.844 1.267.728.509.283.844.493.565.334 1.693.97.152.093.838.481.248.14.577.322c.198.143.405.268.623.375.341.169.549.274.622.317l1.308.753.152.113.661.402.409.241c.016.009.028.022.037.038s.014.033.014.051l.007 9.575-.006.529-.006 1.999a41.972 41.972 0 0 0 0 1.981c.005.132.005.244.001.334l-.015.333.012.832c.002.154-.004.259-.018.316-.016.065-.039.105-.07.121-.413.219-.811.454-1.194.704a1.321 1.321 0 0 0-.416.254c-.306.138-.58.294-.823.468l-.757.428-.294.165-1.265.715-.151.102-.132.072c-.38.216-.751.425-1.124.668a6.744 6.744 0 0 1-.936.506c-.12.054-.231.114-.332.18-.133.088-.241.213-.383.279l-.01-1.128c0-.021.009-.037.027-.048l6.884-3.979a.067.067 0 0 0 .034-.06l-.001-14.789c0-.016-.004-.032-.012-.046s-.02-.025-.034-.034L13.929 1.146a.154.154 0 0 0-.163 0L.979 8.531a.033.033 0 0 0-.018.031v14.563c0 .092-.006.186-.018.282-.002.012.001.024.007.035s.016.018.027.022c.065.025.132.044.193.079 2.232 1.288 4.461 2.576 6.687 3.864.018.01.033.025.043.043s.016.038.016.059l-.002 1.11-.909-.541-.302-.195-.427-.268-1.753-1.009-.139-.07-.656-.383-1.748-1.01-1.92-1.098a.12.12 0 0 1-.059-.101c-.005-5.251-.007-10.528-.004-15.831 0-.058.005-.114.015-.167.003-.015.018-.026.046-.032l1.158-.649.375-.216 1.337-.773 1.378-.794.623-.368.246-.127 4.344-2.529.775-.44 1.417-.827c.672-.379 1.34-.764 2.006-1.154a.249.249 0 0 1 .271-.001c.601.355 1.089.646 1.463.872a2.2 2.2 0 0 0 .291.147z"/><path fill="#f70405" style="fill:var(--color2,#f70405)" d="M8.086 13.622c.238-.461.528-.895.87-1.304.188-.225.399-.421.633-.589.217-.156.497-.23.742-.089.252.146.275.57.227.808-.072.361-.198.71-.346 1.054-.266.616-.486 1.23-.615 1.88a.44.44 0 0 0 .016.243.095.095 0 0 0 .051.052c.152.062.373.206.198.389-.168.176-.37.218-.607.127-.241-.093-.381-.259-.419-.498a2.09 2.09 0 0 1-.009-.61 8.213 8.213 0 0 1 .692-2.297 1.33 1.33 0 0 0 .122-.415c.001-.009-.001-.019-.005-.027s-.011-.015-.019-.02-.018-.007-.027-.006a.062.062 0 0 0-.027.009c-.194.139-.366.32-.51.511a15.72 15.72 0 0 0-1.317 2.134c-.054.103-.152.12-.257.072-.406-.186-.447-.538-.355-.949.081-.358.144-.733.242-1.098a26.07 26.07 0 0 1 1.411-3.911c.044-.097.084-.206.12-.326.006-.02-.001-.03-.022-.032-.215-.018-.376.054-.482.216a22.052 22.052 0 0 0-1.01 1.705 75.285 75.285 0 0 0-1.747 3.477c-.191.406-.372.822-.543 1.245-.004.009-.004.02 0 .029s.011.017.02.02c.326.142.655.271.987.387.292.102.636.2 1.032.294.696.165 1.409.301 2.137.408.094.014.293.03.598.048.008.001.012.005.012.013v.015c0 .011-.006.016-.016.016a6.37 6.37 0 0 1-.716-.024c-1.436-.135-2.78-.377-4.065-.966a.072.072 0 0 0-.092.032c-.04.076-.074.159-.104.249a12.58 12.58 0 0 0-.46 1.853c-.064.367-.085.674.043 1.005.136.35-.271.421-.502.3-.311-.163-.398-.609-.398-.936 0-.344.027-.669.08-.973.12-.686.283-1.342.49-1.97.015-.046.002-.083-.04-.111l-.035-.025c-.385-.305-.673-.586-.866-.844-.098-.13-.196-.286-.294-.468s-.174-.347-.227-.499c-.273-.771-.183-1.515.27-2.23a3.32 3.32 0 0 1 .643-.749 8.204 8.204 0 0 1 1.84-1.188c.498-.238.944-.428 1.339-.57.357-.129.678-.253.962-.372a.365.365 0 0 0 .136-.087c.284-.331.677-.557 1.113-.489.172.028.231.184.419.141.134-.031.263-.069.387-.115.267-.099.548-.085.825-.136.801-.144 1.513-.223 2.305-.182.326.017.624.075.894.173a.096.096 0 0 1 .062.089l-.013 1.095c0 .007-.002.013-.005.019s-.007.011-.013.015c-.005.004-.012.006-.018.007s-.013 0-.02-.002a4.081 4.081 0 0 0-.824-.192 10.109 10.109 0 0 0-2.086-.028c-.047.004-.072.03-.077.076a2.34 2.34 0 0 1-.119.533 6.656 6.656 0 0 1-1.356 2.292c-.195.219-.43.391-.653.579a.625.625 0 0 0-.181.275 8.25 8.25 0 0 0-.255.774 5.854 5.854 0 0 1-.193.588c-.013.033-.014.058-.005.078s.02.02.03.001zm2.247-5.107c.007-.022-.001-.033-.024-.034-.13-.005-.24.141-.295.239a15.335 15.335 0 0 0-1.025 2.237.076.076 0 0 0-.003.021l.002.029c.001.025.01.028.025.008a7.799 7.799 0 0 0 1.319-2.5zm-6.087 6.354c.284-.719.569-1.419.909-2.129a36.953 36.953 0 0 1 1.883-3.447.092.092 0 0 0 .014-.047l-.002-.01a.018.018 0 0 0-.007-.008l-.01-.004c-.004-.001-.007 0-.01.001-.832.298-1.606.667-2.323 1.105-.74.454-1.507 1.159-1.481 2.059.009.332.166.706.289 1.029.037.098.014.172-.071.223a.352.352 0 0 1-.362.018c-.085-.043-.104-.023-.058.061.237.427.633.809 1.019 1.093a.629.629 0 0 0 .151.082c.011.004.024.004.034-.001s.019-.014.024-.025z"/><path fill="#f70405" style="fill:var(--color2,#f70405)" d="M12.966 12.903c.269-.115.548-.216.839-.303.011-.003.024-.003.035.002s.02.013.025.024a.064.064 0 0 1 .004.049.123.123 0 0 1-.084.086c-.483.156-.977.327-1.482.513a1.184 1.184 0 0 1-.301.061c-.439.024-.875.03-1.308.018-.036-.001-.059-.019-.07-.053a.098.098 0 0 1-.001-.051c.259-.911.881-1.728 1.772-2.078.175-.069.361-.117.55-.074.341.079.592.373.569.726-.019.282-.16.483-.282.726-.065.128-.171.216-.278.305-.006.005-.008.011-.005.019a.023.023 0 0 1 .002.016c-.004.015.001.019.015.014zm-1.039.019c.313-.118.589-.294.828-.526.087-.085.139-.19.11-.314-.005-.023-.018-.043-.036-.057s-.041-.022-.064-.023c-.398-.001-.799.592-.966.939-.002.004-.003.008-.002.012l.004.011a.018.018 0 0 0 .01.007c.004.001.008.002.012.001.041-.009.066-.036.104-.05zM13.672 14.149c-.342.835-1.05 1.326-1.963 1.242-.444-.041-.788-.259-1.032-.654a.93.93 0 0 1-.147-.432 3.654 3.654 0 0 1 .037-.798c.001-.01.006-.019.014-.026s.018-.01.028-.01l.936-.004c.009 0 .019.002.027.007s.015.011.021.018c.005.008.009.017.01.026s0 .019-.003.027c-.119.327-.299.939-.031 1.226.332.354.757.221 1.096-.032.322-.24.545-.68.685-1.052a.52.52 0 0 1 .151-.215c.01-.008.021-.014.034-.017s.026-.003.039.001c.277.073.174.509.099.693z"/><path fill="#fff" style="fill:var(--color1,#fff)" d="M13.755 17.718c-.052.804.45 1.564 1.331 1.48.288-.028.525-.15.713-.365.029-.034.063-.039.102-.016.02.012.027.037.021.075a.053.053 0 0 1-.014.029c-.298.354-.696.494-1.194.418-.57-.087-1.011-.595-1.09-1.17-.078-.57-.021-1.148.38-1.584.353-.385.908-.511 1.382-.274.494.247.685.788.652 1.333-.002.025-.015.037-.039.037l-2.2-.003c-.027 0-.041.013-.043.04zm.052-.191 2.071-.011c.004 0 .008-.002.01-.004s.004-.006.004-.01v-.009c-.001-.151-.029-.3-.082-.438s-.131-.265-.229-.371-.214-.19-.341-.247a.968.968 0 0 0-.402-.085h-.004c-.278.001-.544.124-.74.34s-.304.508-.303.812v.009c0 .004.002.008.004.01s.006.004.01.004zM18.65 18.816c-.002-.036-.014-.039-.036-.011-.342.447-.811.624-1.407.531a.797.797 0 0 1-.686-.906c.07-.616.791-.822 1.301-.831.277-.005.539-.003.788.004.026 0 .04-.012.041-.038.015-.507.023-1.007-.577-1.168-.491-.132-1.247.03-1.319.637-.005.042-.029.063-.07.064l-.028.001c-.045.001-.065-.021-.06-.066.113-.997 1.788-1.15 2.145-.26.041.103.064.262.067.477.007.472.008.964.005 1.477-.001.172.02.338.064.499.016.056-.006.085-.065.085h-.057c-.02 0-.039-.007-.053-.021s-.023-.032-.024-.052l-.027-.424zm-1.476-.927c-.787.331-.603 1.284.232 1.312.53.018.922-.181 1.175-.599a.532.532 0 0 0 .073-.287 30.61 30.61 0 0 1-.005-.524l-.003-.015a.038.038 0 0 0-.022-.021.04.04 0 0 0-.015-.003c-.474.01-1-.047-1.436.136zM22.574 18.903l-.001 1.525c0 .01-.002.019-.006.028s-.01.017-.017.024c-.007.007-.016.012-.025.015s-.019.005-.029.004l-.019-.001c-.03-.002-.046-.018-.048-.048a5.231 5.231 0 0 1-.011-.296 330.497 330.497 0 0 1-.001-3.854c0-.035.018-.054.053-.055l.045-.002c.043-.002.064.019.063.062l-.009.422c-.001.044.012.048.037.012.24-.338.499-.525.935-.545 1.18-.053 1.343 1.355 1.15 2.19-.137.591-.511.999-1.148.975-.396-.015-.707-.171-.931-.469-.026-.034-.039-.03-.039.013zm1.233.278c.762-.116.851-1.211.758-1.803-.11-.706-.476-1.141-1.255-.996-.321.06-.528.306-.671.586a.591.591 0 0 0-.063.274c-.001.419-.001.82.001 1.202 0 .105.031.201.091.287.261.376.641.526 1.14.45zM12.268 16.453c.002.622 0 1.317-.005 2.085-.002.248-.01.488-.023.719-.002.032-.019.05-.05.055l-.019.003c-.004.001-.008 0-.011-.001l-.01-.005c-.003-.002-.005-.005-.007-.009s-.003-.007-.003-.011a9.684 9.684 0 0 1-.024-.608c-.007-.741-.008-1.487-.003-2.236 0-.009-.004-.018-.01-.025s-.015-.01-.024-.01l-1.057-.002c-.017 0-.033-.006-.045-.018s-.02-.027-.021-.044l-.002-.018c-.004-.053.021-.08.075-.08l2.384-.002c.045 0 .065.023.06.068l-.004.037c-.005.038-.026.058-.065.058l-1.09-.001c-.03 0-.044.015-.044.044zM20.652 16.452l-.005 2.817c0 .036-.018.052-.053.05l-.031-.002c-.013-.001-.026-.006-.035-.016s-.015-.022-.016-.035a3.96 3.96 0 0 1-.017-.344 227.28 227.28 0 0 1-.001-2.478c0-.009-.004-.018-.01-.024s-.015-.01-.024-.01l-1.066-.004c-.016 0-.031-.006-.042-.017s-.018-.026-.019-.042l-.001-.02c0-.01.001-.021.005-.03s.009-.018.016-.026a.077.077 0 0 1 .055-.023l2.397-.002c.035 0 .052.018.05.053l-.003.06c-.002.033-.02.05-.053.05l-1.105-.001c-.029 0-.043.014-.043.043zM18.48 29.358l-.44.227a.61.61 0 0 1-.221.141c-.26.106-.484.266-.725.397a4.7 4.7 0 0 0-.303.183.592.592 0 0 1-.187.08c-.341.24-.704.457-1.09.653l-1.635.955a.047.047 0 0 1-.05.001l-3.947-2.28c-.191-.11-.39-.2-.582-.306a.122.122 0 0 1-.064-.096 2.301 2.301 0 0 1-.014-.247 1103.92 1103.92 0 0 1-.003-3.612c0-.022.009-.038.028-.049l4.583-2.646c.006-.003.013-.005.019-.005s.014.002.019.005l1.467.848c.005.003.01.004.016.004s.011-.001.016-.004c.005-.003.009-.007.012-.012s.004-.01.004-.016l-.002-.342c0-.022.011-.033.033-.033h1.054c.01 0 .019.004.026.011s.011.016.011.026l-.002 1.009c0 .01.003.019.007.027s.012.015.02.02l1.924 1.109c.007.004.012.01.016.016s.006.015.006.022l.002 3.916zm-4.599-5.417a.062.062 0 0 0-.064 0l-3.543 2.05c-.01.006-.018.014-.023.023s-.008.021-.008.032l.001 2.703c0 .011.003.022.008.032s.014.018.023.023l3.544 2.046c.01.006.021.008.032.008s.022-.003.032-.008l3.552-2.052c.01-.006.018-.014.023-.023s.009-.021.009-.032V26.05c0-.011-.003-.022-.009-.032s-.014-.018-.023-.023l-3.552-2.054z"/><path fill="#fff" style="fill:var(--color1,#fff)" d="m13.708 25.358-.588.003a.018.018 0 0 0-.018.018l.003.558c0 .01.008.018.018.018l.588-.003c.01 0 .018-.008.018-.018l-.003-.558a.018.018 0 0 0-.018-.018zM14.581 25.361l-.582-.004a.025.025 0 0 0-.025.024l-.004.544c0 .014.011.025.024.025l.582.004a.025.025 0 0 0 .025-.024l.004-.544a.025.025 0 0 0-.024-.025zM13.711 26.23l-.593.002a.015.015 0 0 0-.015.015l.002.558c0 .008.007.015.015.015l.593-.002a.015.015 0 0 0 .015-.015l-.002-.558a.015.015 0 0 0-.015-.015zM14.587 26.232l-.599-.002a.018.018 0 0 0-.017.017l-.002.555c0 .009.008.017.017.017l.599.002a.018.018 0 0 0 .017-.017l.002-.555a.018.018 0 0 0-.017-.017z"/></symbol></defs></svg>