<svg aria-hidden="true" style="position: absolute; width: 0; height: 0; overflow: hidden;" version="1.1" xmlns="http://www.w3.org/2000/svg" xmlns:xlink="http://www.w3.org/1999/xlink">
<defs>
<symbol id="vector" viewBox="0 0 28 32">
<path fill="#fff" style="fill: var(--color1, #fff)" d="M15.746 1.059l1.434 0.844 1.267 0.728 0.509 0.283 0.844 0.493 0.565 0.334 1.693 0.97 0.152 0.093 0.838 0.481 0.248 0.14 0.577 0.322c0.198 0.143 0.405 0.268 0.623 0.375 0.341 0.169 0.549 0.274 0.622 0.317 0.432 0.248 0.868 0.499 1.308 0.753l0.152 0.113 0.661 0.402 0.409 0.241c0.016 0.009 0.028 0.022 0.037 0.038s0.014 0.033 0.014 0.051l0.007 9.575-0.006 0.529-0.006 1.999c-0.015 0.916-0.015 1.577 0 1.981 0.005 0.132 0.005 0.244 0.001 0.334-0.010 0.206-0.015 0.317-0.015 0.333 0.005 0.282 0.009 0.56 0.012 0.832 0.002 0.154-0.004 0.259-0.018 0.316-0.016 0.065-0.039 0.105-0.070 0.121-0.413 0.219-0.811 0.454-1.194 0.704-0.182 0.076-0.321 0.161-0.416 0.254-0.306 0.138-0.58 0.294-0.823 0.468l-0.757 0.428-0.294 0.165-1.265 0.715-0.151 0.102-0.132 0.072c-0.38 0.216-0.751 0.425-1.124 0.668-0.291 0.189-0.603 0.358-0.936 0.506-0.12 0.054-0.231 0.114-0.332 0.18-0.133 0.088-0.241 0.213-0.383 0.279l-0.010-1.128c-0-0.021 0.009-0.037 0.027-0.048l6.884-3.979c0.011-0.006 0.019-0.015 0.025-0.025s0.009-0.022 0.009-0.035l-0.001-14.789c0-0.016-0.004-0.032-0.012-0.046s-0.020-0.025-0.034-0.034l-12.756-7.368c-0.054-0.031-0.108-0.031-0.163 0l-12.787 7.385c-0.012 0.007-0.018 0.017-0.018 0.031 0.001 4.854 0.001 9.709 0 14.563 0 0.092-0.006 0.186-0.018 0.282-0.002 0.012 0.001 0.024 0.007 0.035s0.016 0.018 0.027 0.022c0.065 0.025 0.132 0.044 0.193 0.079 2.232 1.288 4.461 2.576 6.687 3.864 0.018 0.010 0.033 0.025 0.043 0.043s0.016 0.038 0.016 0.059l-0.002 1.11-0.909-0.541-0.302-0.195-0.427-0.268-1.753-1.009-0.139-0.070-0.656-0.383-1.748-1.010-1.92-1.098c-0.018-0.010-0.033-0.025-0.043-0.043s-0.016-0.038-0.016-0.058c-0.005-5.251-0.007-10.528-0.004-15.831 0-0.058 0.005-0.114 0.015-0.167 0.003-0.015 0.018-0.026 0.046-0.032l1.158-0.649 0.375-0.216 1.337-0.773 1.378-0.794 0.623-0.368 0.246-0.127 4.344-2.529 0.775-0.44 1.417-0.827c0.672-0.379 1.34-0.764 2.006-1.154 0.091-0.054 0.181-0.054 0.271-0.001 0.601 0.355 1.089 0.646 1.463 0.872 0.091 0.055 0.188 0.104 0.291 0.147z"></path>
<path fill="#f70405" style="fill: var(--color2, #f70405)" d="M8.086 13.622c0.238-0.461 0.528-0.895 0.87-1.304 0.188-0.225 0.399-0.421 0.633-0.589 0.217-0.156 0.497-0.23 0.742-0.089 0.252 0.146 0.275 0.57 0.227 0.808-0.072 0.361-0.198 0.71-0.346 1.054-0.266 0.616-0.486 1.23-0.615 1.88-0.017 0.087-0.012 0.168 0.016 0.243 0.004 0.012 0.011 0.022 0.020 0.031s0.019 0.016 0.031 0.021c0.152 0.062 0.373 0.206 0.198 0.389-0.168 0.176-0.37 0.218-0.607 0.127-0.241-0.093-0.381-0.259-0.419-0.498-0.033-0.215-0.036-0.418-0.009-0.61 0.106-0.759 0.337-1.525 0.692-2.297 0.059-0.129 0.109-0.275 0.122-0.415 0.001-0.009-0.001-0.019-0.005-0.027s-0.011-0.015-0.019-0.020-0.018-0.007-0.027-0.006c-0.010 0.001-0.019 0.004-0.027 0.009-0.194 0.139-0.366 0.32-0.51 0.511-0.491 0.657-0.928 1.388-1.317 2.134-0.054 0.103-0.152 0.12-0.257 0.072-0.406-0.186-0.447-0.538-0.355-0.949 0.081-0.358 0.144-0.733 0.242-1.098 0.348-1.29 0.818-2.594 1.411-3.911 0.044-0.097 0.084-0.206 0.12-0.326 0.006-0.020-0.001-0.030-0.022-0.032-0.215-0.018-0.376 0.054-0.482 0.216-0.357 0.544-0.693 1.112-1.010 1.705-0.616 1.151-1.198 2.31-1.747 3.477-0.191 0.406-0.372 0.822-0.543 1.245-0.004 0.009-0.004 0.020-0 0.029s0.011 0.017 0.020 0.020c0.326 0.142 0.655 0.271 0.987 0.387 0.292 0.102 0.636 0.2 1.032 0.294 0.696 0.165 1.409 0.301 2.137 0.408 0.094 0.014 0.293 0.030 0.598 0.048 0.008 0.001 0.012 0.005 0.012 0.013v0.015c-0 0.011-0.006 0.016-0.016 0.016-0.252 0.005-0.49-0.003-0.716-0.024-1.436-0.135-2.78-0.377-4.065-0.966-0.016-0.007-0.035-0.008-0.052-0.002s-0.031 0.018-0.040 0.034c-0.040 0.076-0.074 0.159-0.104 0.249-0.191 0.57-0.345 1.188-0.46 1.853-0.064 0.367-0.085 0.674 0.043 1.005 0.136 0.35-0.271 0.421-0.502 0.3-0.311-0.163-0.398-0.609-0.398-0.936 0-0.344 0.027-0.669 0.080-0.973 0.12-0.686 0.283-1.342 0.49-1.97 0.015-0.046 0.002-0.083-0.040-0.111-0.012-0.008-0.024-0.016-0.035-0.025-0.385-0.305-0.673-0.586-0.866-0.844-0.098-0.13-0.196-0.286-0.294-0.468s-0.174-0.347-0.227-0.499c-0.273-0.771-0.183-1.515 0.27-2.23 0.181-0.286 0.395-0.536 0.643-0.749 0.541-0.466 1.155-0.862 1.84-1.188 0.498-0.238 0.944-0.428 1.339-0.57 0.357-0.129 0.678-0.253 0.962-0.372 0.049-0.021 0.102-0.047 0.136-0.087 0.284-0.331 0.677-0.557 1.113-0.489 0.172 0.028 0.231 0.184 0.419 0.141 0.134-0.031 0.263-0.069 0.387-0.115 0.267-0.099 0.548-0.085 0.825-0.136 0.801-0.144 1.513-0.223 2.305-0.182 0.326 0.017 0.624 0.075 0.894 0.173 0.018 0.007 0.034 0.019 0.045 0.035s0.017 0.035 0.017 0.054l-0.013 1.095c-0 0.007-0.002 0.013-0.005 0.019s-0.007 0.011-0.013 0.015c-0.005 0.004-0.012 0.006-0.018 0.007s-0.013 0-0.020-0.002c-0.265-0.089-0.541-0.159-0.824-0.192-0.699-0.081-1.394-0.091-2.086-0.028-0.047 0.004-0.072 0.030-0.077 0.076-0.017 0.175-0.057 0.352-0.119 0.533-0.285 0.834-0.737 1.598-1.356 2.292-0.195 0.219-0.43 0.391-0.653 0.579-0.089 0.075-0.142 0.169-0.181 0.275-0.107 0.282-0.192 0.54-0.255 0.774-0.054 0.199-0.118 0.395-0.193 0.588-0.013 0.033-0.014 0.058-0.005 0.078s0.020 0.020 0.030 0.001zM10.333 8.515c0.007-0.022-0.001-0.033-0.024-0.034-0.13-0.005-0.24 0.141-0.295 0.239-0.422 0.762-0.763 1.508-1.025 2.237-0.002 0.007-0.003 0.014-0.003 0.021 0.001 0.010 0.002 0.019 0.002 0.029 0.001 0.025 0.010 0.028 0.025 0.008 0.584-0.737 1.023-1.571 1.319-2.5zM4.246 14.869c0.284-0.719 0.569-1.419 0.909-2.129 0.564-1.178 1.192-2.327 1.883-3.447 0.009-0.015 0.014-0.031 0.014-0.047 0-0.004-0.001-0.007-0.002-0.010s-0.004-0.006-0.007-0.008c-0.003-0.002-0.006-0.003-0.010-0.004s-0.007-0-0.010 0.001c-0.832 0.298-1.606 0.667-2.323 1.105-0.74 0.454-1.507 1.159-1.481 2.059 0.009 0.332 0.166 0.706 0.289 1.029 0.037 0.098 0.014 0.172-0.071 0.223-0.121 0.073-0.242 0.079-0.362 0.018-0.085-0.043-0.104-0.023-0.058 0.061 0.237 0.427 0.633 0.809 1.019 1.093 0.046 0.034 0.096 0.061 0.151 0.082 0.011 0.004 0.024 0.004 0.034-0.001s0.019-0.014 0.024-0.025z"></path>
<path fill="#f70405" style="fill: var(--color2, #f70405)" d="M12.966 12.903c0.269-0.115 0.548-0.216 0.839-0.303 0.011-0.003 0.024-0.003 0.035 0.002s0.020 0.013 0.025 0.024c0.008 0.016 0.009 0.032 0.004 0.049-0.013 0.043-0.041 0.072-0.084 0.086-0.483 0.156-0.977 0.327-1.482 0.513-0.083 0.031-0.212 0.056-0.301 0.061-0.439 0.024-0.875 0.030-1.308 0.018-0.036-0.001-0.059-0.019-0.070-0.053-0.005-0.017-0.005-0.034-0.001-0.051 0.259-0.911 0.881-1.728 1.772-2.078 0.175-0.069 0.361-0.117 0.55-0.074 0.341 0.079 0.592 0.373 0.569 0.726-0.019 0.282-0.16 0.483-0.282 0.726-0.065 0.128-0.171 0.216-0.278 0.305-0.006 0.005-0.008 0.011-0.005 0.019 0.003 0.005 0.003 0.011 0.002 0.016-0.004 0.015 0.001 0.019 0.015 0.014zM11.927 12.922c0.313-0.118 0.589-0.294 0.828-0.526 0.087-0.085 0.139-0.19 0.11-0.314-0.005-0.023-0.018-0.043-0.036-0.057s-0.041-0.022-0.064-0.023c-0.398-0.001-0.799 0.592-0.966 0.939-0.002 0.004-0.003 0.008-0.002 0.012s0.002 0.008 0.004 0.011 0.006 0.006 0.010 0.007c0.004 0.001 0.008 0.002 0.012 0.001 0.041-0.009 0.066-0.036 0.104-0.050z"></path>
<path fill="#f70405" style="fill: var(--color2, #f70405)" d="M13.672 14.149c-0.342 0.835-1.050 1.326-1.963 1.242-0.444-0.041-0.788-0.259-1.032-0.654-0.089-0.144-0.138-0.288-0.147-0.432-0.017-0.26-0.005-0.526 0.037-0.798 0.001-0.010 0.006-0.019 0.014-0.026s0.018-0.010 0.028-0.010l0.936-0.004c0.009 0 0.019 0.002 0.027 0.007s0.015 0.011 0.021 0.018c0.005 0.008 0.009 0.017 0.010 0.026s0 0.019-0.003 0.027c-0.119 0.327-0.299 0.939-0.031 1.226 0.332 0.354 0.757 0.221 1.096-0.032 0.322-0.24 0.545-0.68 0.685-1.052 0.031-0.084 0.082-0.155 0.151-0.215 0.010-0.008 0.021-0.014 0.034-0.017s0.026-0.003 0.039 0.001c0.277 0.073 0.174 0.509 0.099 0.693z"></path>
<path fill="#fff" style="fill: var(--color1, #fff)" d="M13.755 17.718c-0.052 0.804 0.45 1.564 1.331 1.48 0.288-0.028 0.525-0.15 0.713-0.365 0.029-0.034 0.063-0.039 0.102-0.016 0.020 0.012 0.027 0.037 0.021 0.075-0.002 0.011-0.006 0.021-0.014 0.029-0.298 0.354-0.696 0.494-1.194 0.418-0.57-0.087-1.011-0.595-1.090-1.17-0.078-0.57-0.021-1.148 0.38-1.584 0.353-0.385 0.908-0.511 1.382-0.274 0.494 0.247 0.685 0.788 0.652 1.333-0.002 0.025-0.015 0.037-0.039 0.037l-2.2-0.003c-0.027 0-0.041 0.013-0.043 0.040zM13.807 17.527l2.071-0.011c0.004 0 0.008-0.002 0.010-0.004s0.004-0.006 0.004-0.010v-0.009c-0.001-0.151-0.029-0.3-0.082-0.438s-0.131-0.265-0.229-0.371-0.214-0.19-0.341-0.247c-0.128-0.057-0.264-0.086-0.402-0.085h-0.004c-0.278 0.001-0.544 0.124-0.74 0.34s-0.304 0.508-0.303 0.812v0.009c0 0.004 0.002 0.008 0.004 0.010s0.006 0.004 0.010 0.004z"></path>
<path fill="#fff" style="fill: var(--color1, #fff)" d="M18.65 18.816c-0.002-0.036-0.014-0.039-0.036-0.011-0.342 0.447-0.811 0.624-1.407 0.531-0.45-0.071-0.739-0.447-0.686-0.906 0.070-0.616 0.791-0.822 1.301-0.831 0.277-0.005 0.539-0.003 0.788 0.004 0.026 0 0.040-0.012 0.041-0.038 0.015-0.507 0.023-1.007-0.577-1.168-0.491-0.132-1.247 0.030-1.319 0.637-0.005 0.042-0.029 0.063-0.070 0.064l-0.028 0.001c-0.045 0.001-0.065-0.021-0.060-0.066 0.113-0.997 1.788-1.15 2.145-0.26 0.041 0.103 0.064 0.262 0.067 0.477 0.007 0.472 0.008 0.964 0.005 1.477-0.001 0.172 0.020 0.338 0.064 0.499 0.016 0.056-0.006 0.085-0.065 0.085h-0.057c-0.020 0-0.039-0.007-0.053-0.021s-0.023-0.032-0.024-0.052l-0.027-0.424zM17.174 17.889c-0.787 0.331-0.603 1.284 0.232 1.312 0.53 0.018 0.922-0.181 1.175-0.599 0.050-0.084 0.075-0.18 0.073-0.287-0.003-0.175-0.005-0.35-0.005-0.524 0-0.005-0.001-0.010-0.003-0.015s-0.005-0.009-0.009-0.013-0.008-0.006-0.013-0.008c-0.005-0.002-0.010-0.003-0.015-0.003-0.474 0.010-1-0.047-1.436 0.136z"></path>
<path fill="#fff" style="fill: var(--color1, #fff)" d="M22.574 18.903l-0.001 1.525c0 0.010-0.002 0.019-0.006 0.028s-0.010 0.017-0.017 0.024c-0.007 0.007-0.016 0.012-0.025 0.015s-0.019 0.005-0.029 0.004c-0.006-0-0.013-0.001-0.019-0.001-0.030-0.002-0.046-0.018-0.048-0.048-0.007-0.104-0.010-0.203-0.011-0.296-0.008-1.331-0.008-2.615-0.001-3.854 0-0.035 0.018-0.054 0.053-0.055l0.045-0.002c0.043-0.002 0.064 0.019 0.063 0.062l-0.009 0.422c-0.001 0.044 0.012 0.048 0.037 0.012 0.24-0.338 0.499-0.525 0.935-0.545 1.18-0.053 1.343 1.355 1.15 2.19-0.137 0.591-0.511 0.999-1.148 0.975-0.396-0.015-0.707-0.171-0.931-0.469-0.026-0.034-0.039-0.030-0.039 0.013zM23.807 19.181c0.762-0.116 0.851-1.211 0.758-1.803-0.11-0.706-0.476-1.141-1.255-0.996-0.321 0.060-0.528 0.306-0.671 0.586-0.042 0.082-0.063 0.173-0.063 0.274-0.001 0.419-0.001 0.82 0.001 1.202 0 0.105 0.031 0.201 0.091 0.287 0.261 0.376 0.641 0.526 1.14 0.45z"></path>
<path fill="#fff" style="fill: var(--color1, #fff)" d="M12.268 16.453c0.002 0.622-0 1.317-0.005 2.085-0.002 0.248-0.010 0.488-0.023 0.719-0.002 0.032-0.019 0.050-0.050 0.055l-0.019 0.003c-0.004 0.001-0.008 0-0.011-0.001s-0.007-0.003-0.010-0.005c-0.003-0.002-0.005-0.005-0.007-0.009s-0.003-0.007-0.003-0.011c-0.014-0.193-0.022-0.396-0.024-0.608-0.007-0.741-0.008-1.487-0.003-2.236 0-0.009-0.004-0.018-0.010-0.025s-0.015-0.010-0.024-0.010l-1.057-0.002c-0.017 0-0.033-0.006-0.045-0.018s-0.020-0.027-0.021-0.044l-0.002-0.018c-0.004-0.053 0.021-0.080 0.075-0.080l2.384-0.002c0.045 0 0.065 0.023 0.060 0.068l-0.004 0.037c-0.005 0.038-0.026 0.058-0.065 0.058l-1.090-0.001c-0.030 0-0.044 0.015-0.044 0.044z"></path>
<path fill="#fff" style="fill: var(--color1, #fff)" d="M20.652 16.452l-0.005 2.817c0 0.036-0.018 0.052-0.053 0.050l-0.031-0.002c-0.013-0.001-0.026-0.006-0.035-0.016s-0.015-0.022-0.016-0.035c-0.011-0.115-0.016-0.229-0.017-0.344-0.005-0.819-0.005-1.645-0.001-2.478 0-0.009-0.004-0.018-0.010-0.024s-0.015-0.010-0.024-0.010l-1.066-0.004c-0.016-0-0.031-0.006-0.042-0.017s-0.018-0.026-0.019-0.042l-0.001-0.020c-0-0.010 0.001-0.021 0.005-0.030s0.009-0.018 0.016-0.026c0.007-0.007 0.016-0.013 0.025-0.017s0.020-0.006 0.030-0.006l2.397-0.002c0.035 0 0.052 0.018 0.050 0.053l-0.003 0.060c-0.002 0.033-0.020 0.050-0.053 0.050l-1.105-0.001c-0.029 0-0.043 0.014-0.043 0.043z"></path>
<path fill="#fff" style="fill: var(--color1, #fff)" d="M18.48 29.358l-0.44 0.227c-0.068 0.066-0.142 0.113-0.221 0.141-0.26 0.106-0.484 0.266-0.725 0.397-0.098 0.054-0.199 0.115-0.303 0.183-0.037 0.028-0.099 0.055-0.187 0.080-0.341 0.24-0.704 0.457-1.090 0.653l-1.635 0.955c-0.017 0.010-0.034 0.010-0.050 0.001-1.317-0.76-2.632-1.52-3.947-2.28-0.191-0.11-0.39-0.2-0.582-0.306-0.018-0.010-0.033-0.024-0.044-0.040s-0.018-0.036-0.020-0.056c-0.009-0.083-0.014-0.166-0.014-0.247-0.003-1.241-0.004-2.445-0.003-3.612 0-0.022 0.009-0.038 0.028-0.049l4.583-2.646c0.006-0.003 0.013-0.005 0.019-0.005s0.014 0.002 0.019 0.005l1.467 0.848c0.005 0.003 0.010 0.004 0.016 0.004s0.011-0.001 0.016-0.004c0.005-0.003 0.009-0.007 0.012-0.012s0.004-0.010 0.004-0.016l-0.002-0.342c-0-0.022 0.011-0.033 0.033-0.033h1.054c0.010 0 0.019 0.004 0.026 0.011s0.011 0.016 0.011 0.026l-0.002 1.009c0 0.010 0.003 0.019 0.007 0.027s0.012 0.015 0.020 0.020l1.924 1.109c0.007 0.004 0.012 0.010 0.016 0.016s0.006 0.015 0.006 0.022l0.002 3.916zM13.881 23.941c-0.010-0.006-0.021-0.009-0.032-0.009s-0.022 0.003-0.032 0.009l-3.543 2.050c-0.010 0.006-0.018 0.014-0.023 0.023s-0.008 0.021-0.008 0.032l0.001 2.703c0 0.011 0.003 0.022 0.008 0.032s0.014 0.018 0.023 0.023l3.544 2.046c0.010 0.006 0.021 0.008 0.032 0.008s0.022-0.003 0.032-0.008l3.552-2.052c0.010-0.006 0.018-0.014 0.023-0.023s0.009-0.021 0.009-0.032v-2.693c0-0.011-0.003-0.022-0.009-0.032s-0.014-0.018-0.023-0.023l-3.552-2.054z"></path>
<path fill="#fff" style="fill: var(--color1, #fff)" d="M13.708 25.358l-0.588 0.003c-0.010 0-0.018 0.008-0.018 0.018l0.003 0.558c0 0.010 0.008 0.018 0.018 0.018l0.588-0.003c0.010-0 0.018-0.008 0.018-0.018l-0.003-0.558c-0-0.010-0.008-0.018-0.018-0.018z"></path>
<path fill="#fff" style="fill: var(--color1, #fff)" d="M14.581 25.361l-0.582-0.004c-0.014-0-0.025 0.011-0.025 0.024l-0.004 0.544c-0 0.014 0.011 0.025 0.024 0.025l0.582 0.004c0.014 0 0.025-0.011 0.025-0.024l0.004-0.544c0-0.014-0.011-0.025-0.024-0.025z"></path>
<path fill="#fff" style="fill: var(--color1, #fff)" d="M13.711 26.23l-0.593 0.002c-0.008 0-0.015 0.007-0.015 0.015l0.002 0.558c0 0.008 0.007 0.015 0.015 0.015l0.593-0.002c0.008-0 0.015-0.007 0.015-0.015l-0.002-0.558c-0-0.008-0.007-0.015-0.015-0.015z"></path>
<path fill="#fff" style="fill: var(--color1, #fff)" d="M14.587 26.232l-0.599-0.002c-0.009-0-0.017 0.008-0.017 0.017l-0.002 0.555c-0 0.009 0.008 0.017 0.017 0.017l0.599 0.002c0.009 0 0.017-0.008 0.017-0.017l0.002-0.555c0-0.009-0.008-0.017-0.017-0.017z"></path>
</symbol>
</defs>
</svg>
